# xmcd CD database file
#
# Track frame offsets:
#	150
#	25432
#	49632
#	69495
#	85990
#	99570
#	123502
#	134957
#	153227
#	176505
#	189590
#	220877
#	247695
#
# Disc length: 4034 seconds
#
# Revision: 0
# Processed by: cddbd v1.4PL0 Copyright (c) Steve Scherf et al.
# Submitted via: CDex 1.50Beta5
#
DISCID=b50fc00d
DTITLE=Various Artist - Texas Tenors
DYEAR=1900
DGENRE=Jazz
TTITLE0=Illinois Jacquet: Jivin' With Jack The Bellboy
TTITLE1=Arnett Cobb: Black Velvet
TTITLE2=Buddy Tate: The Salt Mines
TTITLE3=Budd Johnson: Serenade in Blue
TTITLE4=Russell Procope, featuring John Hardee: Right Foot Then Left Foot
TTITLE5=Wild Bill Moore: Bubbles
TTITLE6=Jimmy Witherspoon featuring Clifford Scott: Cane River
TTITLE7=Don Wilkerson: Where or When
TTITLE8=Charles Kynard, featuring Wilton Felder: Stomp
TTITLE9=Jesse Powell: When You're Smiling
TTITLE10=King Curtis: Jeep's Blues
TTITLE11=Dont Patterson, featuring Booker Ervin: Just Friends
TTITLE12=James Clay/David "Fathead" Newman: Wide Open Spaces
EXTD=
EXTT0=
EXTT1=
EXTT2=
EXTT3=
EXTT4=
EXTT5=
EXTT6=
EXTT7=
EXTT8=
EXTT9=
EXTT10=
EXTT11=
EXTT12=
PLAYORDER=
